<svg width="1400" height="360" viewBox="0 0 1400 360" fill="none" xmlns="http://www.w3.org/2000/svg" role="img" aria-label="Constant Recognition horizontal logo">
  <rect width="1400" height="360" rx="54" fill="#0B1020"/>
  <g transform="translate(82 54) scale(0.492)">
    <rect width="512" height="512" rx="112" fill="#0B1020"/>
    <circle cx="256" cy="256" r="168" fill="#111A2E" stroke="#45E6FF" stroke-width="10"/>
    <path d="M119 257C158 187 213 152 284 154C346 156 389 193 406 247" stroke="#9B7CFF" stroke-width="14" stroke-linecap="round"/>
    <path d="M393 260C354 331 298 366 227 364C165 362 123 325 106 271" stroke="#7CFFB2" stroke-width="14" stroke-linecap="round"/>
    <circle cx="143" cy="238" r="12" fill="#45E6FF"/>
    <circle cx="369" cy="276" r="12" fill="#7CFFB2"/>
    <text x="256" y="248" text-anchor="middle" font-family="Inter, ui-sans-serif, system-ui, -apple-system, BlinkMacSystemFont, Segoe UI, sans-serif" font-size="112" font-weight="800" fill="#F8FAFC">π</text>
    <text x="256" y="318" text-anchor="middle" font-family="Inter, ui-sans-serif, system-ui, -apple-system, BlinkMacSystemFont, Segoe UI, sans-serif" font-size="54" font-weight="700" fill="#45E6FF">≈ f(x)</text>
  </g>
  <text x="390" y="154" font-family="Inter, ui-sans-serif, system-ui, -apple-system, BlinkMacSystemFont, Segoe UI, sans-serif" font-size="72" font-weight="800" fill="#F8FAFC">Constant Recognition</text>
  <text x="394" y="222" font-family="Inter, ui-sans-serif, system-ui, -apple-system, BlinkMacSystemFont, Segoe UI, sans-serif" font-size="34" font-weight="500" fill="#94A3B8">turn numerical results into closed-form formulas</text>
  <path d="M395 270H820" stroke="#45E6FF" stroke-width="5" stroke-linecap="round"/>
  <path d="M395 294H660" stroke="#7CFFB2" stroke-width="5" stroke-linecap="round"/>
</svg>
